<?xml version="1.0"?>
<svg xmlns="http://www.w3.org/2000/svg" id="Layer_1" enable-background="new 0 0 512.094 512.094" height="512px" viewBox="0 0 512.094 512.094" width="512px"><g><g><g><path d="m497.646 169.551c-11.125-5.757-27.889-3.952-38.41 13.618-.03.05-.06.1-.089.151l-38.866 67.553c-11.227-5.776-25.386-2.929-33.439 7.407-2.782 3.572-11.974 15.807-21.703 28.761-5.334 7.1-10.666 14.199-14.784 19.657-3.326 4.409-2.448 10.68 1.961 14.005 4.411 3.328 10.68 2.449 14.006-1.96 4.124-5.467 9.466-12.578 14.809-19.69 9.25-12.314 18.814-25.048 21.489-28.481 2.282-2.93 6.663-3.498 9.569-1.237 2.158 1.677 2.043 5.785-.342 12.208-8.488 22.861-19.035 45.706-28.938 62.677-2.783 4.771-1.172 10.894 3.599 13.677 4.772 2.783 10.895 1.172 13.677-3.598 10.456-17.922 21.54-41.903 30.412-65.795 3.077-8.289 3.636-14.924 2.738-20.214l43.101-74.914c3.484-5.776 8.084-8.099 12.019-6.063 2.702 1.398 4.991 4.992 2.568 10.521-2.918 6.446-9.199 22.399-17.145 42.582-10.518 26.713-23.605 59.959-34.667 85.828-13.475 31.516-18.664 39.128-42.718 62.654l-38.333 37.494c-2.53 2.475-3.564 6.104-2.718 9.541l13.354 54.219c.017.065.033.131.051.197.219.818-.249 1.506-.493 1.699h-78.164c-7.425 0-9.02-2.117-10.679-6.611-19.618-53.131.617-83.626 20.438-104.258 3.826-3.983 3.698-10.313-.284-14.139-3.983-3.826-10.313-3.7-14.14.284-14.605 15.203-24.268 30.727-29.462 47.34-2.131-6.773-5.001-13.374-8.623-19.821-13.593-24.201-35.688-41.932-53.442-56.18-10.324-8.285-20.076-16.11-25.569-23.162-2.672-3.43-12.229-16.154-21.472-28.458-9.73-12.955-18.921-25.19-21.704-28.762-8.053-10.336-22.211-13.184-33.439-7.407l-38.867-67.554c-.029-.051-.059-.101-.089-.151-10.521-17.57-27.286-19.375-38.411-13.618-11.213 5.804-18.817 20.17-11.656 36.398.014.031.028.062.042.093 1.927 4.248 5.801 13.937 8.961 21.902 2.037 5.134 7.852 7.645 12.983 5.608 5.134-2.037 7.645-7.85 5.608-12.983-4.858-12.247-7.647-19.055-9.313-22.734-2.421-5.529-.133-9.123 2.569-10.521 3.937-2.036 8.536.288 12.02 6.064l43.1 74.913c-.898 5.29-.339 11.925 2.739 20.214 8.87 23.891 19.955 47.872 30.411 65.794 2.784 4.77 8.907 6.381 13.677 3.598s6.381-8.907 3.598-13.677c-9.902-16.972-20.45-39.817-28.938-62.677-2.385-6.423-2.5-10.53-.34-12.209 2.903-2.256 7.286-1.691 9.567 1.238 2.674 3.433 12.24 16.167 21.49 28.482 9.723 12.943 18.906 25.168 21.686 28.737 6.93 8.896 17.567 17.433 28.829 26.47 35.991 28.882 76.785 61.619 51.103 131.175-1.66 4.494-3.254 6.611-10.679 6.611h-78.164c-.244-.192-.712-.881-.493-1.699.018-.065.035-.131.051-.197l13.354-54.219c.847-3.437-.187-7.065-2.718-9.541l-38.333-37.494c-24.053-23.526-29.243-31.138-42.718-62.655-2.769-6.474-5.88-13.924-9.25-22.142-2.095-5.11-7.936-7.556-13.046-5.459-5.11 2.095-7.554 7.936-5.459 13.046 3.455 8.427 6.519 15.76 9.365 22.417 14.532 33.989 21.138 43.675 47.124 69.09l34.249 33.5-11.968 48.589c-1.688 6.445-.274 13.442 3.793 18.744 3.91 5.096 9.71 8.019 15.912 8.019h78.3c14.92 0 24.55-6.438 29.441-19.684 1.85-5.01 3.414-9.926 4.712-14.759 1.289 4.853 2.852 9.774 4.693 14.759 4.89 13.246 14.521 19.684 29.44 19.684h78.3c6.202 0 12.002-2.923 15.913-8.019 4.066-5.3 5.481-12.296 3.794-18.74l-11.969-48.592 34.249-33.5c25.985-25.416 32.592-35.102 47.124-69.09 11.174-26.135 24.321-59.53 34.886-86.364 7.554-19.185 14.076-35.754 16.774-41.702.014-.031.027-.062.041-.093 7.164-16.225-.441-30.591-11.655-36.395z" data-original="#000000" class="active-path" data-old_color="#000000" fill="#FFFFFF"/><path d="m47.614 266.127c0-5.523-4.477-10-10-10h-.007c-5.523 0-9.996 4.477-9.996 10s4.48 10 10.003 10 10-4.478 10-10z" data-original="#000000" class="active-path" data-old_color="#000000" fill="#FFFFFF"/><path d="m326.62 334.644c-5.522 0-9.996 4.477-9.996 10s4.48 10 10.003 10 10-4.477 10-10-4.478-10-10-10z" data-original="#000000" class="active-path" data-old_color="#000000" fill="#FFFFFF"/><path d="m96.048 165.758h91.183c-.776 4.188-1.184 8.487-1.184 12.86v17.142c0 5.523 4.477 10 10 10h120c5.522 0 10-4.477 10-10v-17.142c0-4.372-.409-8.671-1.185-12.86h91.185c5.522 0 10-4.477 10-10v-17.142c0-23.303-11.39-44.591-30.28-57.586 2.917-5.902 4.565-12.539 4.565-19.556v-17.142c0-24.419-19.866-44.286-44.285-44.286-24.42 0-44.286 19.866-44.286 44.286v17.143c0 7.028 1.653 13.675 4.579 19.584-6.152 4.268-11.544 9.466-16.007 15.348v-12.074c0-24.419-19.866-44.286-44.286-44.286s-44.286 19.866-44.286 44.286v12.076c-4.463-5.883-9.856-11.082-16.008-15.35 2.926-5.909 4.579-12.555 4.579-19.584v-17.143c0-24.419-19.866-44.286-44.286-44.286s-44.286 19.866-44.286 44.286v17.143c0 7.017 1.648 13.654 4.565 19.556-18.891 12.993-30.279 34.274-30.279 57.586v17.142c.002 5.522 4.479 9.999 10.002 9.999zm209.999 20.002h-100v-7.142c0-16.918 8.894-32.874 23.048-42.037 7.472 5.75 16.816 9.18 26.952 9.18 10.141 0 19.491-3.434 26.964-9.19 2.16 1.385 4.188 2.921 6.082 4.583.313.318.642.619.995.893 5.16 4.778 9.219 10.551 11.953 16.948.136.397.297.781.48 1.154 2.294 5.766 3.525 12.009 3.525 18.468v7.143zm100-47.143v7.142h-88.167c-2.977-5.589-6.712-10.762-11.12-15.373 2.335-13.812 10.506-26.149 22.349-33.795 7.469 5.743 16.809 9.169 26.938 9.169 10.141 0 19.49-3.434 26.964-9.19 14.333 9.191 23.036 24.855 23.036 42.047zm-74.287-94.285c0-13.391 10.895-24.286 24.286-24.286s24.285 10.895 24.285 24.286v17.143c0 13.391-10.895 24.286-24.285 24.286-13.392 0-24.286-10.895-24.286-24.286zm-99.999 40.001c0-13.391 10.895-24.286 24.286-24.286s24.286 10.895 24.286 24.286v17.143c0 13.391-10.895 24.286-24.286 24.286s-24.286-10.895-24.286-24.286zm-99.999-40.001c0-13.391 10.895-24.286 24.286-24.286s24.286 10.895 24.286 24.286v17.143c0 13.391-10.895 24.286-24.286 24.286s-24.286-10.895-24.286-24.286zm-25.714 94.285c0-17.198 8.702-32.857 23.036-42.046 7.474 5.756 16.823 9.19 26.964 9.19 10.129 0 19.468-3.426 26.938-9.169 11.84 7.645 20.012 19.983 22.349 33.791-4.41 4.612-8.147 9.786-11.124 15.377h-88.162v-7.143z" data-original="#000000" class="active-path" data-old_color="#000000" fill="#FFFFFF"/></g></g></g> </svg>
