<?xml version="1.0"?>
<svg xmlns="http://www.w3.org/2000/svg" viewBox="0 0 512.00024 512" width="512px" height="512px"><g><path d="m508.347656 368.417969c-9.496094-22.214844-34.78125-32.078125-56.605468-24.796875l-90.839844 30.277344c-.261719-3.746094-.996094-7.480469-2.214844-11.136719-3.800781-11.402344-11.816406-20.644531-22.570312-26.019531l-124.390626-62.195313c-16.824218-8.414063-36.058593-10.203125-54.144531-5.035156l-37.113281 10.605469c-3.320312-21.5625-21.996094-38.121094-44.472656-38.121094h-60.996094c-8.285156 0-15 6.714844-15 15v209.996094c0 8.28125 6.714844 15 15 15h90.996094c8.285156 0 15-6.71875 15-15v-8.042969l77.550781 38.773437c34.714844 17.34375 76.089844 19.378906 113.507813 3.324219l172.65625-73.558594c22.84375-9.78125 33.433593-36.21875 23.636718-59.070312zm-417.351562 83.574219h-60.996094v-179.996094h46c8.269531 0 14.996094 6.726562 14.996094 15zm381.933594-52.089844-172.667969 73.5625c-28.839844 12.371094-60.972657 11.078125-88.304688-2.578125l-90.960937-45.476563v-114.246094l44.828125-12.804687c10.851562-3.105469 22.390625-2.03125 32.488281 3.019531l124.390625 62.195313c7.398437 3.699219 10.410156 12.726562 6.710937 20.128906-3.773437 7.542969-12.851562 10.347656-20.128906 6.707031l-74.214844-37.105468c-18.933593-9.46875-42.226562-4.300782-55.378906 12.285156-5.148437 6.488281-4.0625 15.925781 2.429688 21.070312 6.488281 5.148438 15.925781 4.0625 21.074218-2.429687 4.382813-5.527344 12.144532-7.25 18.457032-4.09375l74.214844 37.105469c16.320312 8.160156 36.339843 5.734374 50.21875-6.78125l115.148437-38.382813c7.488281-2.5 16.375.753906 19.53125 8.144531 3.3125 7.71875-.363281 16.476563-7.835937 19.679688zm0 0" data-original="#000000" class="active-path" data-old_color="#000000" fill="#FFFFFF"/><path d="m330.964844 107c0 8.28125-6.714844 15-15 15s-15-6.71875-15-15c0-8.285156 6.714844-15 15-15s15 6.714844 15 15zm0 0" data-original="#000000" class="active-path" data-old_color="#000000" fill="#FFFFFF"/><path d="m390.960938 166.996094c0 8.285156-6.714844 15-14.996094 15-8.285156 0-15-6.714844-15-15 0-8.28125 6.714844-15 15-15 8.28125 0 14.996094 6.71875 14.996094 15zm0 0" data-original="#000000" class="active-path" data-old_color="#000000" fill="#FFFFFF"/><path d="m386.597656 96.390625c-5.855468-5.855469-15.355468-5.855469-21.210937 0l-60 60c-5.859375 5.859375-5.859375 15.355469 0 21.210937 5.855469 5.859376 15.355469 5.859376 21.210937 0l60-59.996093c5.859375-5.859375 5.859375-15.355469 0-21.214844zm0 0" data-original="#000000" class="active-path" data-old_color="#000000" fill="#FFFFFF"/><path d="m186.625 178.710938 149.996094 119.996093c2.738281 2.191407 6.054687 3.289063 9.371094 3.289063 3.300781 0 6.601562-1.085938 9.332031-3.257813l150.996093-119.996093c4.996094-3.972657 6.933594-10.664063 4.832032-16.6875-2.101563-6.023438-7.785156-10.058594-14.164063-10.058594h-45.996093v-136.996094c0-8.285156-6.71875-15-15-15h-179.996094c-8.285156 0-15 6.714844-15 15v136.996094h-45c-6.371094 0-12.046875 4.023437-14.152344 10.035156-2.109375 6.011719-.191406 12.699219 4.78125 16.679688zm69.371094 3.285156c8.28125 0 15-6.714844 15-15v-136.996094h149.996094v136.996094c0 8.285156 6.714843 15 15 15h18.015624l-107.984374 85.8125-107.265626-85.8125zm0 0" data-original="#000000" class="active-path" data-old_color="#000000" fill="#FFFFFF"/></g> </svg>
