<?xml version="1.0"?>
<svg xmlns="http://www.w3.org/2000/svg" enable-background="new 0 0 520 520" height="512px" viewBox="0 0 520 520" width="512px"><g><g id="_x37_86_x2C__Clipboard_x2C__Management_x2C__Strategy"><g><path d="m237.224 259.781 18.022 15.447 14.5 12.429c6.035 5.173 9.185 12.689 8.64 20.619-.546 7.931-4.693 14.944-11.381 19.243l-56.209 36.136c-2.323 1.493-2.995 4.587-1.502 6.91 1.491 2.318 4.582 2.996 6.91 1.502l56.209-36.136c19.674-12.65 21.606-40.641 3.841-55.867-3.429-2.939-28.906-24.777-32.522-27.877-11.704-10.032-11.605-28.235.363-38.127l36.832-30.787v31.73c0 2.761 2.238 5 5 5s5-2.239 5-5c-.021-44.97.08-42.661-.17-43.655-.166-.656-.461-1.251-.86-1.781-.049-.064-.082-.135-.134-.197-.046-.055-.103-.094-.149-.146-.895-.982-2.131-1.569-3.475-1.625-.843-.041-22.613-.013-42.639-.021-2.761 0-5 2.239-5 5s2.239 5 5 5h28.648l-34.446 28.793c-7.958 6.577-12.575 16.27-12.667 26.594-.092 10.323 4.351 20.097 12.189 26.816z" data-original="#000000" class="active-path" data-old_color="#000000" fill="#FFFCFC"/><path d="m204.943 270.881-21.612 37.436c-1.921 3.328.485 7.5 4.33 7.5h43.245c4.067 0 6.385-4.586 4.104-7.856l-21.408-37.079c-.893-1.547-2.544-2.5-4.33-2.5-1.786-.001-3.436.952-4.329 2.499zm17.283 34.935h-25.905l12.952-22.436z" data-original="#000000" class="active-path" data-old_color="#000000" fill="#FFFCFC"/><circle cx="69.998" cy="67.504" r="7.5" data-original="#000000" class="active-path" data-old_color="#000000" fill="#FFFCFC"/><circle cx="370.002" cy="52.5" r="7.5" data-original="#000000" class="active-path" data-old_color="#000000" fill="#FFFCFC"/><circle cx="460.002" cy="172.5" r="7.5" data-original="#000000" class="active-path" data-old_color="#000000" fill="#FFFCFC"/><circle cx="55.002" cy="187.504" r="7.5" data-original="#000000" class="active-path" data-old_color="#000000" fill="#FFFCFC"/><circle cx="445.002" cy="377.5" r="7.5" data-original="#000000" class="active-path" data-old_color="#000000" fill="#FFFCFC"/><circle cx="70.002" cy="442.5" r="7.5" data-original="#000000" class="active-path" data-old_color="#000000" fill="#FFFCFC"/><path d="m383.973 90.003h-42.131c-5.447-5.549-13.025-9-21.397-9h-30c0-16.542-13.458-30-30-30s-30.001 13.458-30.001 30h-30c-8.372 0-15.95 3.451-21.397 9h-48.02c-18.487 0-33.527 15.04-33.527 33.528v322.945c0 18.486 15.04 33.527 33.528 33.527h252.945c18.487 0 33.527-15.041 33.527-33.527v-322.945c0-18.487-15.04-33.528-33.527-33.528zm-183.529 1h35c2.761 0 5-2.239 5-5v-5c0-11.028 8.972-20 20.001-20 11.028 0 20 8.972 20 20v5c0 2.761 2.238 5 5 5h35c11.028 0 20 8.972 20 20s-8.972 20-20 20h-120.001c-11.028 0-20-8.972-20-20 0-11.027 8.972-20 20-20zm207.056 355.474c0 12.973-10.555 23.527-23.527 23.527h-252.945c-12.973 0-23.528-10.555-23.528-23.527v-322.946c0-12.973 10.554-23.528 23.527-23.528h41.515c-7.777 19.657 6.813 41 27.902 41h120.001c21.095 0 35.68-21.354 27.901-41h35.627c12.973 0 23.527 10.555 23.527 23.528z" data-original="#000000" class="active-path" data-old_color="#000000" fill="#FFFCFC"/><path d="m372.5 180.003c-2.762 0-5 2.239-5 5v250.001h-220v-200.001c0-2.761-2.239-5-5-5s-5 2.239-5 5v205.001c0 2.761 2.239 5 5 5h230c2.762 0 5-2.239 5-5v-255.001c0-2.761-2.238-5-5-5z" data-original="#000000" class="active-path" data-old_color="#000000" fill="#FFFCFC"/><path d="m452.5 40.003c-16.542 0-30 13.458-30 30s13.458 30 30 30 30-13.458 30-30-13.458-30-30-30zm0 50c-11.028 0-20-8.972-20-20s8.972-20 20-20 20 8.972 20 20-8.972 20-20 20z" data-original="#000000" class="active-path" data-old_color="#000000" fill="#FFFCFC"/><path d="m62.5 350.004c-13.785 0-25 11.215-25 25s11.215 25 25 25 25-11.215 25-25-11.215-25-25-25zm0 40c-8.271 0-15-6.729-15-15 0-8.272 6.729-15 15-15s15 6.728 15 15c0 8.27-6.729 15-15 15z" data-original="#000000" class="active-path" data-old_color="#000000" fill="#FFFCFC"/><path d="m318.5 380.004c11.028 0 20-8.973 20-20 0-11.028-8.972-20-20-20s-20 8.972-20 20c0 11.027 8.972 20 20 20zm0-30c5.514 0 10 4.485 10 10 0 5.514-4.486 10-10 10s-10-4.486-10-10c0-5.515 4.486-10 10-10z" data-original="#000000" class="active-path" data-old_color="#000000" fill="#FFFCFC"/><path d="m188.5 220.003c11.028 0 20-8.972 20-20s-8.972-20-20-20-20 8.972-20 20 8.972 20 20 20zm0-30c5.514 0 10 4.486 10 10s-4.486 10-10 10-10-4.486-10-10 4.486-10 10-10z" data-original="#000000" class="active-path" data-old_color="#000000" fill="#FFFCFC"/><path d="m277.035 381.468c-1.951-1.952-5.119-1.952-7.07 0l-11.465 11.465-11.464-11.465c-1.953-1.952-5.118-1.952-7.071 0-1.953 1.953-1.953 5.119 0 7.071l11.464 11.465-11.464 11.464c-3.158 3.159-.879 8.536 3.536 8.536 1.28 0 2.559-.488 3.536-1.465l11.464-11.465 11.465 11.465c1.951 1.953 5.119 1.953 7.07 0 1.953-1.952 1.953-5.118 0-7.071l-11.464-11.464 11.464-11.465c1.952-1.952 1.952-5.118-.001-7.071z" data-original="#000000" class="active-path" data-old_color="#000000" fill="#FFFCFC"/><path d="m307.5 290.004h40c2.762 0 5-2.239 5-5 0-2.762-2.238-5-5-5h-40c-2.762 0-5 2.238-5 5 0 2.761 2.238 5 5 5z" data-original="#000000" class="active-path" data-old_color="#000000" fill="#FFFCFC"/><path d="m307.5 275.004h40c2.762 0 5-2.239 5-5 0-2.762-2.238-5-5-5h-40c-2.762 0-5 2.238-5 5 0 2.761 2.238 5 5 5z" data-original="#000000" class="active-path" data-old_color="#000000" fill="#FFFCFC"/><path d="m307.5 260.004h40c2.762 0 5-2.239 5-5.001 0-2.761-2.238-5-5-5h-40c-2.762 0-5 2.239-5 5 0 2.762 2.238 5.001 5 5.001z" data-original="#000000" class="active-path" data-old_color="#000000" fill="#FFFCFC"/><path d="m307.5 245.003h40c2.762 0 5-2.239 5-5s-2.238-5-5-5h-40c-2.762 0-5 2.239-5 5s2.238 5 5 5z" data-original="#000000" class="active-path" data-old_color="#000000" fill="#FFFCFC"/><path d="m307.5 230.003h40c2.762 0 5-2.239 5-5s-2.238-5-5-5h-40c-2.762 0-5 2.239-5 5s2.238 5 5 5z" data-original="#000000" class="active-path" data-old_color="#000000" fill="#FFFCFC"/></g></g></g> </svg>
